<?xml version="1.0" encoding="utf-8"?>
<!-- Generator: Adobe Illustrator 28.4.1, SVG Export Plug-In . SVG Version: 6.00 Build 0)  -->
<svg version="1.1" id="Layer_1" xmlns="http://www.w3.org/2000/svg" xmlns:xlink="http://www.w3.org/1999/xlink" x="0px" y="0px"
	 viewBox="0 0 204.35 98.15" style="enable-background:new 0 0 204.35 98.15;" xml:space="preserve">
<style type="text/css">
	.st0{fill:#ED1C24;}
	.st1{fill:#00A651;}
</style>
<g>
	<g>
		<path d="M32.61,66.03c0.04,0.2,0.16,0.39,0.36,0.57c0.2,0.18,0.5,0.34,0.9,0.49c0.4,0.15,0.92,0.31,1.55,0.47
			c0.69,0.19,1.3,0.4,1.81,0.63c0.51,0.23,0.91,0.51,1.2,0.84s0.47,0.72,0.55,1.16c0.08,0.44,0.03,0.96-0.13,1.55
			c-0.19,0.68-0.48,1.28-0.87,1.81c-0.39,0.53-0.86,0.97-1.41,1.34c-0.54,0.37-1.15,0.64-1.82,0.83c-0.67,0.19-1.38,0.28-2.13,0.28
			c-1.1,0-2.09-0.19-2.99-0.56c-0.9-0.37-1.67-0.94-2.31-1.71l1.99-1.79c0.53,0.6,1.1,1.05,1.71,1.37c0.62,0.32,1.37,0.48,2.26,0.48
			c0.77,0,1.43-0.16,1.97-0.49c0.54-0.33,0.89-0.76,1.04-1.32c0.07-0.26,0.09-0.49,0.06-0.69c-0.03-0.2-0.14-0.39-0.34-0.56
			c-0.19-0.17-0.47-0.33-0.85-0.48c-0.37-0.15-0.87-0.3-1.49-0.47c-0.71-0.18-1.33-0.37-1.86-0.59c-0.53-0.22-0.95-0.49-1.26-0.81
			c-0.31-0.33-0.51-0.72-0.59-1.18c-0.08-0.46-0.03-1.02,0.15-1.68c0.17-0.62,0.45-1.19,0.83-1.69c0.38-0.51,0.83-0.94,1.36-1.31
			c0.52-0.37,1.11-0.65,1.76-0.84c0.65-0.2,1.32-0.29,2.03-0.29c1.04,0,1.94,0.15,2.69,0.46c0.75,0.3,1.41,0.75,1.98,1.33
			l-1.86,1.89c-0.52-0.47-1.06-0.84-1.63-1.09c-0.57-0.25-1.18-0.37-1.83-0.37c-0.73,0-1.34,0.17-1.84,0.5
			c-0.5,0.33-0.81,0.73-0.94,1.21C32.59,65.58,32.57,65.83,32.61,66.03z"/>
		<path d="M48.86,69.8l-1.65,5.99h-2.48l3.91-14.21h2.48l-1.63,5.91h6.82l1.63-5.91h2.48l-3.91,14.21h-2.48l1.65-5.99H48.86z"/>
		<path d="M70.75,61.58l-3.91,14.21h-2.48l3.91-14.21H70.75z"/>
		<path d="M87.28,68.46c-0.47,0.61-1.01,1.12-1.64,1.52c-0.63,0.4-1.32,0.71-2.06,0.92c-0.75,0.21-1.52,0.31-2.3,0.31h-2.83
			l-1.26,4.57h-2.48l3.91-14.21h5.6c0.83,0,1.54,0.11,2.15,0.34c0.61,0.22,1.09,0.55,1.44,0.96c0.35,0.42,0.57,0.92,0.66,1.5
			c0.09,0.58,0.03,1.24-0.17,1.97C88.09,67.15,87.75,67.85,87.28,68.46z M85.45,64.48c-0.44-0.43-1.13-0.64-2.06-0.64h-2.91
			l-1.41,5.14h2.91c0.95,0,1.76-0.23,2.44-0.7c0.68-0.47,1.13-1.09,1.34-1.86C85.99,65.55,85.89,64.91,85.45,64.48z"/>
		<path d="M104.9,68.46c-0.47,0.61-1.01,1.12-1.64,1.52c-0.63,0.4-1.32,0.71-2.06,0.92c-0.75,0.21-1.52,0.31-2.3,0.31h-2.83
			l-1.26,4.57h-2.48l3.91-14.21h5.6c0.83,0,1.54,0.11,2.15,0.34c0.61,0.22,1.09,0.55,1.44,0.96c0.35,0.42,0.57,0.92,0.66,1.5
			c0.09,0.58,0.03,1.24-0.17,1.97C105.71,67.15,105.36,67.85,104.9,68.46z M103.07,64.48c-0.44-0.43-1.13-0.64-2.06-0.64H98.1
			l-1.41,5.14h2.91c0.95,0,1.76-0.23,2.44-0.7c0.68-0.47,1.13-1.09,1.34-1.86C103.61,65.55,103.51,64.91,103.07,64.48z"/>
		<path d="M116.47,61.58l-3.91,14.21h-2.48L114,61.58H116.47z"/>
		<path d="M134.25,61.58h2.48l-3.91,14.21h-2.09l-5.04-10.11l-2.78,10.11h-2.48l3.91-14.21h2.31l4.89,9.82L134.25,61.58z"/>
		<path d="M152.33,74.67c-0.5,0.27-1.03,0.51-1.58,0.71c-0.55,0.2-1.12,0.36-1.72,0.48c-0.6,0.12-1.21,0.17-1.83,0.17
			c-1.11,0-2.07-0.18-2.87-0.56c-0.8-0.37-1.44-0.89-1.9-1.54c-0.46-0.66-0.75-1.43-0.85-2.32c-0.11-0.89-0.02-1.86,0.27-2.9
			c0.28-1,0.72-1.95,1.32-2.84c0.6-0.89,1.32-1.67,2.16-2.34c0.83-0.67,1.75-1.2,2.76-1.59c1.01-0.39,2.05-0.59,3.12-0.59
			c0.62,0,1.18,0.04,1.66,0.13s0.92,0.21,1.31,0.37c0.39,0.16,0.74,0.36,1.06,0.6c0.32,0.24,0.62,0.51,0.9,0.82l-2.1,1.89
			c-0.21-0.23-0.43-0.44-0.66-0.63c-0.23-0.19-0.49-0.35-0.76-0.48c-0.28-0.13-0.59-0.23-0.94-0.3c-0.35-0.07-0.75-0.11-1.2-0.11
			c-0.65,0-1.29,0.13-1.93,0.4c-0.63,0.26-1.22,0.63-1.76,1.09c-0.54,0.46-1.01,1-1.42,1.61c-0.4,0.61-0.7,1.26-0.89,1.95
			c-0.2,0.73-0.27,1.41-0.21,2.03c0.06,0.62,0.24,1.16,0.54,1.62c0.3,0.45,0.71,0.81,1.23,1.07c0.52,0.26,1.14,0.38,1.87,0.38
			c0.68,0,1.34-0.1,1.98-0.3c0.64-0.2,1.23-0.46,1.75-0.78l0.74-2.67h-3.63l0.6-2.17h6.05l-1.64,5.97
			C153.3,74.12,152.84,74.4,152.33,74.67z"/>
	</g>
	<g>
		<path class="st0" d="M46.01,38.99l-1.34,5.29c-0.58,2.3-2.66,4.29-5.23,5.31c-0.19,0.07-0.28,0.25-0.2,0.37l3.31,5.2
			c0.41,0.64-0.16,1.41-1.04,1.41h-8.14l-7.06-12.06h8.44c0.77,0,1.53-0.51,1.7-1.15l0.88-3.48c0.16-0.64-0.34-1.15-1.11-1.15H19.2
			c-0.81,0-1.58-0.65-1.73-1.45l-0.78-4.38h23.44C44.22,32.92,46.85,35.63,46.01,38.99z"/>
		<path class="st0" d="M107.99,37.54c-0.18,0.72-1.03,1.31-1.9,1.31H87.33l2.79,1.38l-2.31,9.23c-0.11,0.43,0.23,0.79,0.75,0.79
			h6.98l-1.22,4.87c-0.18,0.72-1.03,1.31-1.9,1.31c-1.53,0-5.53,0-7.43,0c-4.1,0-6.72-2.76-5.87-6.16l2.87-11.37
			c0.86-3.39,4.85-6.13,8.93-6.13h18.26L107.99,37.54z"/>
		<path class="st0" d="M114.02,44.76l8.89,11.64h-9.57c-0.46,0-0.86-0.17-1.09-0.47c-0.29-0.38-8.2-10.92-8.54-11.37l14.27-11.35
			c0.37-0.3,0.86-0.47,1.32-0.47h9.57l-14.76,11.69C113.98,44.52,113.95,44.67,114.02,44.76z"/>
		<path class="st0" d="M152.08,55.59c-0.11,0.43-0.62,0.79-1.14,0.79c-1.26,0-24.69,0-25.95,0l1.21-4.83
			c0.21-0.83,0.92-1.36,1.82-1.36h25.42L152.08,55.59z M151.49,41.71l-1.22,4.88c-0.11,0.44-0.62,0.79-1.14,0.79
			c-0.6,0-20.71,0-21.19,0l1.07-4.31c0.21-0.83,0.92-1.36,1.82-1.36H151.49z M155.62,37.97c-0.11,0.44-0.62,0.79-1.14,0.79h-22.36
			c-1.23,0-2.41-1-2.62-2.24l-0.66-3.8h28.1L155.62,37.97z"/>
		<path class="st0" d="M187.65,32.71l-1.17,4.71c-0.18,0.73-1.03,1.31-1.9,1.31h-11.69l3.29,1.53l-3.68,14.79
			c-0.18,0.73-1.03,1.31-1.9,1.31h-6.85L168.07,39c0.04-0.15-0.08-0.26-0.25-0.26h-7.38l0-0.01h-0.03c-0.69,0-1.16-0.26-1.37-0.82
			c-0.06-0.15-0.87-5.2-0.87-5.2H187.65z"/>
	</g>
	<g>
		<path class="st1" d="M162.43,69.56h11.83v0.77c0,1.14-0.93,2.07-2.07,2.07h-11.83v-0.77C160.36,70.49,161.29,69.56,162.43,69.56z"
			/>
		<path class="st1" d="M164.03,64.97h16.61v0.77c0,1.14-0.93,2.07-2.07,2.07h-16.61v-0.77C161.96,65.9,162.88,64.97,164.03,64.97z"
			/>
	</g>
	<path class="st1" d="M57.27,32.76c-3.99,0.13-7.82,2.83-8.64,6.14l-2.19,8.76l13.94-6.99L57.27,32.76z M61.36,43.15l-15.7,7.88
		c-0.31,3.04,2.22,5.38,6.01,5.38h14.9L61.36,43.15z M67.42,50.38l2.28,5.82c3.36-0.67,6.31-3.08,7.03-5.94l1.29-5.2L67.42,50.38z
		 M75.71,33c-1.51,2.25-3.59,4.63-5.43,6.58c-0.57,0.6-1.33,0.95-2.09,0.95c-0.76,0-1.42-0.35-1.82-0.94
		c-1.32-2.02-2.76-4.51-3.6-6.84h-2.28l5.95,15.15l12.43-6.24l0.69-2.76C80.26,36.11,78.6,33.75,75.71,33z"/>
	<path class="st0" d="M69.25,38.65c2.01-2.13,6.63-7.28,7.05-10.17c0.51-3.51-1.93-6.36-5.44-6.36c-3.51,0-6.77,2.85-7.28,6.36
		c-0.42,2.89,2.71,8.05,4.1,10.17C68.01,39.15,68.77,39.15,69.25,38.65L69.25,38.65z M70.37,25.53c1.63,0,2.75,1.32,2.52,2.94
		s-1.75,2.94-3.37,2.94c-1.63,0-2.75-1.32-2.52-2.94C67.23,26.85,68.74,25.53,70.37,25.53z"/>
</g>
</svg>
