<svg width="172" height="55" viewBox="0 0 172 55" fill="none" xmlns="http://www.w3.org/2000/svg">
<path d="M16.61 44.03C16.65 44.23 16.77 44.42 16.97 44.6C17.17 44.78 17.47 44.94 17.87 45.09C18.27 45.24 18.79 45.4 19.42 45.56C20.11 45.75 20.72 45.96 21.23 46.19C21.74 46.42 22.14 46.7 22.43 47.03C22.72 47.36 22.9 47.75 22.98 48.19C23.06 48.63 23.01 49.15 22.85 49.74C22.66 50.42 22.37 51.02 21.98 51.55C21.59 52.08 21.12 52.52 20.57 52.89C20.03 53.26 19.42 53.53 18.75 53.72C18.08 53.91 17.37 54 16.62 54C15.52 54 14.53 53.81 13.63 53.44C12.73 53.07 11.96 52.5 11.32 51.73L13.31 49.94C13.84 50.54 14.41 50.99 15.02 51.31C15.64 51.63 16.39 51.79 17.28 51.79C18.05 51.79 18.71 51.63 19.25 51.3C19.79 50.97 20.14 50.54 20.29 49.98C20.36 49.72 20.38 49.49 20.35 49.29C20.32 49.09 20.21 48.9 20.01 48.73C19.82 48.56 19.54 48.4 19.16 48.25C18.79 48.1 18.29 47.95 17.67 47.78C16.96 47.6 16.34 47.41 15.81 47.19C15.28 46.97 14.86 46.7 14.55 46.38C14.24 46.05 14.04 45.66 13.96 45.2C13.88 44.74 13.93 44.18 14.11 43.52C14.28 42.9 14.56 42.33 14.94 41.83C15.32 41.32 15.77 40.89 16.3 40.52C16.82 40.15 17.41 39.87 18.06 39.68C18.71 39.48 19.38 39.39 20.09 39.39C21.13 39.39 22.03 39.54 22.78 39.85C23.53 40.15 24.19 40.6 24.76 41.18L22.9 43.07C22.38 42.6 21.84 42.23 21.27 41.98C20.7 41.73 20.09 41.61 19.44 41.61C18.71 41.61 18.1 41.78 17.6 42.11C17.1 42.44 16.79 42.84 16.66 43.32C16.59 43.58 16.57 43.83 16.61 44.03Z" fill="black"/>
<path d="M32.86 47.8L31.21 53.79H28.73L32.64 39.58H35.12L33.49 45.49H40.31L41.94 39.58H44.42L40.51 53.79H38.03L39.68 47.8H32.86Z" fill="black"/>
<path d="M54.75 39.58L50.84 53.79H48.36L52.27 39.58H54.75Z" fill="black"/>
<path d="M71.28 46.46C70.81 47.07 70.27 47.58 69.64 47.98C69.01 48.38 68.32 48.69 67.58 48.9C66.83 49.11 66.06 49.21 65.28 49.21H62.45L61.19 53.78H58.71L62.62 39.57H68.22C69.05 39.57 69.76 39.68 70.37 39.91C70.98 40.13 71.46 40.46 71.81 40.87C72.16 41.29 72.38 41.79 72.47 42.37C72.56 42.95 72.5 43.61 72.3 44.34C72.09 45.15 71.75 45.85 71.28 46.46ZM69.45 42.48C69.01 42.05 68.32 41.84 67.39 41.84H64.48L63.07 46.98H65.98C66.93 46.98 67.74 46.75 68.42 46.28C69.1 45.81 69.55 45.19 69.76 44.42C69.99 43.55 69.89 42.91 69.45 42.48Z" fill="black"/>
<path d="M88.9 46.46C88.43 47.07 87.89 47.58 87.26 47.98C86.63 48.38 85.94 48.69 85.2 48.9C84.45 49.11 83.68 49.21 82.9 49.21H80.07L78.81 53.78H76.33L80.24 39.57H85.84C86.67 39.57 87.38 39.68 87.99 39.91C88.6 40.13 89.08 40.46 89.43 40.87C89.78 41.29 90 41.79 90.09 42.37C90.18 42.95 90.12 43.61 89.92 44.34C89.71 45.15 89.36 45.85 88.9 46.46ZM87.07 42.48C86.63 42.05 85.94 41.84 85.01 41.84H82.1L80.69 46.98H83.6C84.55 46.98 85.36 46.75 86.04 46.28C86.72 45.81 87.17 45.19 87.38 44.42C87.61 43.55 87.51 42.91 87.07 42.48Z" fill="black"/>
<path d="M100.47 39.58L96.56 53.79H94.08L98 39.58H100.47Z" fill="black"/>
<path d="M118.25 39.58H120.73L116.82 53.79H114.73L109.69 43.68L106.91 53.79H104.43L108.34 39.58H110.65L115.54 49.4L118.25 39.58Z" fill="black"/>
<path d="M136.33 52.67C135.83 52.94 135.3 53.18 134.75 53.38C134.2 53.58 133.63 53.74 133.03 53.86C132.43 53.98 131.82 54.03 131.2 54.03C130.09 54.03 129.13 53.85 128.33 53.47C127.53 53.1 126.89 52.58 126.43 51.93C125.97 51.27 125.68 50.5 125.58 49.61C125.47 48.72 125.56 47.75 125.85 46.71C126.13 45.71 126.57 44.76 127.17 43.87C127.77 42.98 128.49 42.2 129.33 41.53C130.16 40.86 131.08 40.33 132.09 39.94C133.1 39.55 134.14 39.35 135.21 39.35C135.83 39.35 136.39 39.39 136.87 39.48C137.35 39.57 137.79 39.69 138.18 39.85C138.57 40.01 138.92 40.21 139.24 40.45C139.56 40.69 139.86 40.96 140.14 41.27L138.04 43.16C137.83 42.93 137.61 42.72 137.38 42.53C137.15 42.34 136.89 42.18 136.62 42.05C136.34 41.92 136.03 41.82 135.68 41.75C135.33 41.68 134.93 41.64 134.48 41.64C133.83 41.64 133.19 41.77 132.55 42.04C131.92 42.3 131.33 42.67 130.79 43.13C130.25 43.59 129.78 44.13 129.37 44.74C128.97 45.35 128.67 46 128.48 46.69C128.28 47.42 128.21 48.1 128.27 48.72C128.33 49.34 128.51 49.88 128.81 50.34C129.11 50.79 129.52 51.15 130.04 51.41C130.56 51.67 131.18 51.79 131.91 51.79C132.59 51.79 133.25 51.69 133.89 51.49C134.53 51.29 135.12 51.03 135.64 50.71L136.38 48.04H132.75L133.35 45.87H139.4L137.76 51.84C137.3 52.12 136.84 52.4 136.33 52.67Z" fill="black"/>
<path d="M30.01 16.99L28.67 22.28C28.09 24.58 26.01 26.57 23.44 27.59C23.25 27.66 23.16 27.84 23.24 27.96L26.55 33.16C26.96 33.8 26.39 34.57 25.51 34.57H17.37L10.31 22.51H18.75C19.52 22.51 20.28 22 20.45 21.36L21.33 17.88C21.49 17.24 20.99 16.73 20.22 16.73H3.2C2.39 16.73 1.62 16.08 1.47 15.28L0.690002 10.9H24.13C28.22 10.92 30.85 13.63 30.01 16.99Z" fill="#ED1C24"/>
<path d="M91.99 15.54C91.81 16.26 90.96 16.85 90.09 16.85H71.33L74.12 18.23L71.81 27.46C71.7 27.89 72.04 28.25 72.56 28.25H79.54L78.32 33.12C78.14 33.84 77.29 34.43 76.42 34.43C74.89 34.43 70.89 34.43 68.99 34.43C64.89 34.43 62.27 31.67 63.12 28.27L65.99 16.9C66.85 13.51 70.84 10.77 74.92 10.77H93.18L91.99 15.54Z" fill="#ED1C24"/>
<path d="M98.02 22.76L106.91 34.4H97.34C96.88 34.4 96.48 34.23 96.25 33.93C95.96 33.55 88.05 23.01 87.71 22.56L101.98 11.21C102.35 10.91 102.84 10.74 103.3 10.74H112.87L98.11 22.43C97.98 22.52 97.95 22.67 98.02 22.76Z" fill="#ED1C24"/>
<path d="M136.08 33.59C135.97 34.02 135.46 34.38 134.94 34.38C133.68 34.38 110.25 34.38 108.99 34.38L110.2 29.55C110.41 28.72 111.12 28.19 112.02 28.19H137.44L136.08 33.59ZM135.49 19.71L134.27 24.59C134.16 25.03 133.65 25.38 133.13 25.38C132.53 25.38 112.42 25.38 111.94 25.38L113.01 21.07C113.22 20.24 113.93 19.71 114.83 19.71H135.49ZM139.62 15.97C139.51 16.41 139 16.76 138.48 16.76H116.12C114.89 16.76 113.71 15.76 113.5 14.52L112.84 10.72H140.94L139.62 15.97Z" fill="#ED1C24"/>
<path d="M171.65 10.71L170.48 15.42C170.3 16.15 169.45 16.73 168.58 16.73H156.89L160.18 18.26L156.5 33.05C156.32 33.78 155.47 34.36 154.6 34.36H147.75L152.07 17C152.11 16.85 151.99 16.74 151.82 16.74H144.44V16.73H144.41C143.72 16.73 143.25 16.47 143.04 15.91C142.98 15.76 142.17 10.71 142.17 10.71H171.65Z" fill="#ED1C24"/>
<path d="M146.43 47.56H158.26V48.33C158.26 49.47 157.33 50.4 156.19 50.4H144.36V49.63C144.36 48.49 145.29 47.56 146.43 47.56Z" fill="#00A651"/>
<path d="M148.03 42.97H164.64V43.74C164.64 44.88 163.71 45.81 162.57 45.81H145.96V45.04C145.96 43.9 146.88 42.97 148.03 42.97Z" fill="#00A651"/>
<path d="M41.27 10.76C37.28 10.89 33.45 13.59 32.63 16.9L30.44 25.66L44.38 18.67L41.27 10.76ZM45.36 21.15L29.66 29.03C29.35 32.07 31.88 34.41 35.67 34.41H50.57L45.36 21.15ZM51.42 28.38L53.7 34.2C57.06 33.53 60.01 31.12 60.73 28.26L62.02 23.06L51.42 28.38ZM59.71 11C58.2 13.25 56.12 15.63 54.28 17.58C53.71 18.18 52.95 18.53 52.19 18.53C51.43 18.53 50.77 18.18 50.37 17.59C49.05 15.57 47.61 13.08 46.77 10.75H44.49L50.44 25.9L62.87 19.66L63.56 16.9C64.26 14.11 62.6 11.75 59.71 11Z" fill="#00A651"/>
<path d="M53.25 16.65C55.26 14.52 59.88 9.37 60.3 6.48C60.81 2.97 58.37 0.120003 54.86 0.120003C51.35 0.120003 48.09 2.97 47.58 6.48C47.16 9.37 50.29 14.53 51.68 16.65C52.01 17.15 52.77 17.15 53.25 16.65ZM54.37 3.53C56 3.53 57.12 4.85 56.89 6.47C56.66 8.09 55.14 9.41 53.52 9.41C51.89 9.41 50.77 8.09 51 6.47C51.23 4.85 52.74 3.53 54.37 3.53Z" fill="#ED1C24"/>
</svg>
