<svg width="189" height="64" viewBox="0 0 189 64" fill="none" xmlns="http://www.w3.org/2000/svg">
<path d="M19.3143 51.4887C19.361 51.7227 19.5014 51.945 19.7354 52.1556C19.9694 52.3661 20.3203 52.5533 20.7883 52.7288C21.2562 52.9043 21.8646 53.0915 22.6016 53.2786C23.4088 53.5009 24.1224 53.7466 24.719 54.0157C25.3157 54.2847 25.7836 54.6123 26.1229 54.9983C26.4621 55.3844 26.6727 55.8406 26.7663 56.3554C26.8599 56.8701 26.8014 57.4784 26.6142 58.1687C26.3919 58.9642 26.0527 59.6661 25.5964 60.2861C25.1402 60.9062 24.5903 61.4209 23.9469 61.8537C23.3152 62.2866 22.6016 62.6025 21.8178 62.8247C21.034 63.047 20.2034 63.1523 19.326 63.1523C18.0391 63.1523 16.8809 62.93 15.8281 62.4972C14.7752 62.0643 13.8744 61.3975 13.1257 60.4967L15.4537 58.4026C16.0737 59.1046 16.7406 59.631 17.4542 60.0054C18.1795 60.3797 19.0569 60.5669 20.0981 60.5669C20.9989 60.5669 21.771 60.3797 22.4027 59.9937C23.0344 59.6076 23.4439 59.1046 23.6194 58.4494C23.7012 58.1453 23.7246 57.8762 23.6895 57.6422C23.6544 57.4083 23.5258 57.186 23.2918 56.9871C23.0695 56.7882 22.742 56.6011 22.2974 56.4256C21.8646 56.2501 21.2796 56.0746 20.5543 55.8757C19.7237 55.6652 18.9984 55.4429 18.3784 55.1855C17.7583 54.9281 17.267 54.6123 16.9043 54.2379C16.5417 53.8519 16.3077 53.3956 16.2141 52.8575C16.1205 52.3193 16.179 51.6642 16.3896 50.8921C16.5885 50.1668 16.916 49.5 17.3606 48.915C17.8051 48.3184 18.3316 47.8154 18.9516 47.3825C19.5599 46.9497 20.2501 46.6221 21.0106 46.3998C21.771 46.1659 22.5548 46.0606 23.3854 46.0606C24.602 46.0606 25.6549 46.2361 26.5323 46.5987C27.4097 46.9497 28.1818 47.4761 28.8486 48.1546L26.6727 50.3657C26.0644 49.8158 25.4326 49.383 24.7658 49.0905C24.099 48.7981 23.3854 48.6577 22.625 48.6577C21.771 48.6577 21.0574 48.8565 20.4724 49.2426C19.8875 49.6287 19.5248 50.0966 19.3727 50.6581C19.2909 50.9623 19.2675 51.2548 19.3143 51.4887Z" fill="white"/>
<path d="M38.3246 55.8991L36.3943 62.9066H33.493L38.0672 46.2828H40.9684L39.0616 53.1967H47.04L48.9469 46.2828H51.8482L47.274 62.9066H44.3727L46.303 55.8991H38.3246Z" fill="white"/>
<path d="M63.9329 46.2828L59.3587 62.9066H56.4575L61.0316 46.2828H63.9329Z" fill="white"/>
<path d="M83.2707 54.3315C82.7209 55.0451 82.0892 55.6418 81.3522 56.1097C80.6152 56.5777 79.808 56.9403 78.9423 57.186C78.0649 57.4317 77.1641 57.5486 76.2516 57.5486H72.9408L71.4668 62.8949H68.5656L73.1397 46.2711H79.691C80.662 46.2711 81.4926 46.3998 82.2062 46.6689C82.9198 46.9263 83.4813 47.3123 83.8908 47.792C84.3002 48.2833 84.5576 48.8683 84.6629 49.5468C84.7682 50.2253 84.698 50.9974 84.464 51.8514C84.2183 52.799 83.8206 53.6179 83.2707 54.3315ZM81.1299 49.6755C80.6152 49.1724 79.8079 48.9267 78.72 48.9267H75.3157L73.6662 54.9398H77.0705C78.1818 54.9398 79.1294 54.6708 79.9249 54.1209C80.7204 53.5711 81.2469 52.8458 81.4926 51.945C81.7616 50.9272 81.6446 50.1785 81.1299 49.6755Z" fill="white"/>
<path d="M103.884 54.3315C103.334 55.0451 102.702 55.6418 101.965 56.1097C101.228 56.5777 100.421 56.9403 99.5552 57.186C98.6779 57.4317 97.7771 57.5486 96.8646 57.5486H93.5538L92.0798 62.8949H89.1786L93.7527 46.2711H100.304C101.275 46.2711 102.106 46.3998 102.819 46.6689C103.533 46.9263 104.094 47.3123 104.504 47.792C104.913 48.2833 105.171 48.8683 105.276 49.5468C105.381 50.2253 105.311 50.9974 105.077 51.8514C104.831 52.799 104.422 53.6179 103.884 54.3315ZM101.743 49.6755C101.228 49.1724 100.421 48.9267 99.333 48.9267H95.9287L94.2792 54.9398H97.6835C98.7948 54.9398 99.7424 54.6708 100.538 54.1209C101.333 53.5711 101.86 52.8458 102.106 51.945C102.375 50.9272 102.258 50.1785 101.743 49.6755Z" fill="white"/>
<path d="M117.419 46.2828L112.845 62.9066H109.944L114.53 46.2828H117.419Z" fill="white"/>
<path d="M138.219 46.2828H141.121L136.546 62.9066H134.101L128.205 51.0793L124.953 62.9066H122.052L126.626 46.2828H129.328L135.049 57.7709L138.219 46.2828Z" fill="white"/>
<path d="M159.37 61.5964C158.785 61.9122 158.165 62.193 157.522 62.427C156.879 62.6609 156.212 62.8481 155.51 62.9885C154.808 63.1289 154.094 63.1874 153.369 63.1874C152.07 63.1874 150.947 62.9768 150.011 62.5323C149.076 62.0994 148.327 61.4911 147.789 60.7307C147.251 59.9586 146.911 59.0578 146.794 58.0166C146.666 56.9754 146.771 55.8406 147.11 54.624C147.438 53.4541 147.953 52.3427 148.654 51.3016C149.356 50.2604 150.199 49.3479 151.181 48.5641C152.152 47.7803 153.229 47.1602 154.41 46.704C155.592 46.2477 156.808 46.0138 158.06 46.0138C158.785 46.0138 159.441 46.0606 160.002 46.1659C160.564 46.2711 161.078 46.4115 161.535 46.5987C161.991 46.7859 162.4 47.0199 162.775 47.3006C163.149 47.5814 163.5 47.8973 163.828 48.2599L161.371 50.471C161.125 50.2019 160.868 49.9562 160.599 49.7339C160.33 49.5117 160.026 49.3245 159.71 49.1724C159.382 49.0203 159.019 48.9033 158.61 48.8215C158.201 48.7396 157.733 48.6928 157.206 48.6928C156.446 48.6928 155.697 48.8449 154.948 49.1607C154.211 49.4649 153.521 49.8977 152.889 50.4359C152.258 50.974 151.708 51.6057 151.228 52.3193C150.76 53.033 150.409 53.7934 150.187 54.6006C149.953 55.4546 149.871 56.2501 149.941 56.9754C150.011 57.7007 150.222 58.3324 150.573 58.8706C150.924 59.397 151.404 59.8182 152.012 60.1223C152.62 60.4265 153.346 60.5669 154.2 60.5669C154.995 60.5669 155.767 60.4499 156.516 60.2159C157.265 59.982 157.955 59.6778 158.563 59.3034L159.429 56.1799H155.182L155.884 53.6413H162.962L161.043 60.6254C160.505 60.9529 159.967 61.2805 159.37 61.5964Z" fill="white"/>
<path d="M34.9904 19.8556L33.4228 26.0442C32.7443 28.7349 30.311 31.0629 27.3044 32.2562C27.0821 32.3381 26.9769 32.5486 27.0704 32.689L30.9427 38.7723C31.4223 39.521 30.7555 40.4218 29.726 40.4218H20.2033L11.9441 26.3133H21.8178C22.7185 26.3133 23.6076 25.7166 23.8065 24.9679L24.836 20.8968C25.0232 20.1481 24.4382 19.5514 23.5375 19.5514H3.62636C2.67877 19.5514 1.77797 18.791 1.6025 17.8551L0.690002 12.7311H28.1116C32.8964 12.7545 35.9731 15.9249 34.9904 19.8556Z" fill="#ED1C24"/>
<path d="M107.499 18.1593C107.288 19.0016 106.294 19.6918 105.276 19.6918H83.3292L86.5931 21.3062L83.8907 32.1041C83.7621 32.6071 84.1598 33.0283 84.7681 33.0283H92.9338L91.5066 38.7255C91.296 39.5678 90.3016 40.258 89.2838 40.258C87.4939 40.258 82.8145 40.258 80.5917 40.258C75.7953 40.258 72.7302 37.0292 73.7246 33.0517L77.0821 19.7503C78.0882 15.7845 82.756 12.5791 87.529 12.5791H108.891L107.499 18.1593Z" fill="#ED1C24"/>
<path d="M114.553 26.6057L124.953 40.223H113.757C113.219 40.223 112.751 40.0241 112.482 39.6731C112.143 39.2286 102.889 26.8982 102.492 26.3718L119.186 13.0938C119.618 12.7428 120.192 12.544 120.73 12.544H131.925L114.658 26.2197C114.506 26.325 114.471 26.5004 114.553 26.6057Z" fill="#ED1C24"/>
<path d="M159.078 39.2754C158.949 39.7784 158.353 40.1996 157.744 40.1996C156.27 40.1996 128.86 40.1996 127.386 40.1996L128.802 34.5491C129.047 33.5781 129.878 32.9581 130.931 32.9581H160.669L159.078 39.2754ZM158.388 23.0376L156.96 28.7466C156.832 29.2613 156.235 29.6708 155.627 29.6708C154.925 29.6708 131.399 29.6708 130.837 29.6708L132.089 24.6287C132.335 23.6577 133.165 23.0376 134.218 23.0376H158.388ZM163.219 18.6624C163.091 19.1771 162.494 19.5865 161.886 19.5865H135.727C134.288 19.5865 132.908 18.4167 132.662 16.966L131.89 12.5206H164.763L163.219 18.6624Z" fill="#ED1C24"/>
<path d="M200.69 12.5089L199.321 18.0189C199.111 18.8729 198.116 19.5514 197.099 19.5514H183.423L187.272 21.3413L182.967 38.6436C182.756 39.4976 181.762 40.1762 180.744 40.1762H172.73L177.784 19.8673C177.831 19.6918 177.69 19.5631 177.492 19.5631H168.858V19.5514H168.823C168.016 19.5514 167.466 19.2473 167.22 18.5922C167.15 18.4167 166.202 12.5089 166.202 12.5089H200.69Z" fill="#ED1C24"/>
<path d="M171.186 55.6184H185.026V56.5192C185.026 57.8528 183.938 58.9408 182.604 58.9408H168.764V58.04C168.764 56.7063 169.852 55.6184 171.186 55.6184Z" fill="#00A651"/>
<path d="M173.058 50.2487H192.489V51.1495C192.489 52.4831 191.401 53.5711 190.068 53.5711H170.636V52.6703C170.636 51.3367 171.712 50.2487 173.058 50.2487Z" fill="#00A651"/>
<path d="M48.1631 12.5674C43.4954 12.7194 39.0148 15.8781 38.0555 19.7503L35.4935 29.9983L51.8014 21.821L48.1631 12.5674ZM52.9479 24.7222L34.581 33.9408C34.2183 37.4972 37.1781 40.2346 41.6119 40.2346H59.0429L52.9479 24.7222ZM60.0372 33.1804L62.7045 39.989C66.6353 39.2052 70.0864 36.3858 70.9287 33.04L72.4378 26.9567L60.0372 33.1804ZM69.7354 12.8481C67.9689 15.4803 65.5356 18.2646 63.3831 20.5458C62.7162 21.2478 61.8271 21.6572 60.938 21.6572C60.0489 21.6572 59.2768 21.2477 58.8089 20.5575C57.2647 18.1944 55.5801 15.2814 54.5974 12.5557H51.9301L58.8908 30.2791L73.4322 22.9791L74.2394 19.7503C75.0583 16.4864 73.1163 13.7255 69.7354 12.8481Z" fill="#00A651"/>
<path d="M62.1781 19.4579C64.5295 16.9661 69.9343 10.9412 70.4256 7.56034C71.0222 3.45411 68.1678 0.120003 64.0616 0.120003C59.9553 0.120003 56.1416 3.45411 55.5449 7.56034C55.0536 10.9412 58.7153 16.9777 60.3414 19.4579C60.7274 20.0428 61.6165 20.0428 62.1781 19.4579ZM63.4883 4.10924C65.3952 4.10924 66.7054 5.65346 66.4364 7.54864C66.1673 9.44382 64.3891 10.988 62.4939 10.988C60.5871 10.988 59.2768 9.44382 59.5459 7.54864C59.8149 5.65346 61.5814 4.10924 63.4883 4.10924Z" fill="#ED1C24"/>
</svg>
