<svg width="205" height="99" viewBox="0 0 205 99" fill="none" xmlns="http://www.w3.org/2000/svg">
<path d="M32.61 66.03C32.65 66.23 32.77 66.42 32.97 66.6C33.17 66.78 33.47 66.94 33.87 67.09C34.27 67.24 34.79 67.4 35.42 67.56C36.11 67.75 36.72 67.96 37.23 68.19C37.74 68.42 38.14 68.7 38.43 69.03C38.72 69.36 38.9 69.75 38.98 70.19C39.06 70.63 39.01 71.15 38.85 71.74C38.66 72.42 38.37 73.02 37.98 73.55C37.59 74.08 37.12 74.52 36.57 74.89C36.03 75.26 35.42 75.53 34.75 75.72C34.08 75.91 33.37 76 32.62 76C31.52 76 30.53 75.81 29.63 75.44C28.73 75.07 27.96 74.5 27.32 73.73L29.31 71.94C29.84 72.54 30.41 72.99 31.02 73.31C31.64 73.63 32.39 73.79 33.28 73.79C34.05 73.79 34.71 73.63 35.25 73.3C35.79 72.97 36.14 72.54 36.29 71.98C36.36 71.72 36.38 71.49 36.35 71.29C36.32 71.09 36.21 70.9 36.01 70.73C35.82 70.56 35.54 70.4 35.16 70.25C34.79 70.1 34.29 69.95 33.67 69.78C32.96 69.6 32.34 69.41 31.81 69.19C31.28 68.97 30.86 68.7 30.55 68.38C30.24 68.05 30.04 67.66 29.96 67.2C29.88 66.74 29.93 66.18 30.11 65.52C30.28 64.9 30.56 64.33 30.94 63.83C31.32 63.32 31.77 62.89 32.3 62.52C32.82 62.15 33.41 61.87 34.06 61.68C34.71 61.48 35.38 61.39 36.09 61.39C37.13 61.39 38.03 61.54 38.78 61.85C39.53 62.15 40.19 62.6 40.76 63.18L38.9 65.07C38.38 64.6 37.84 64.23 37.27 63.98C36.7 63.73 36.09 63.61 35.44 63.61C34.71 63.61 34.1 63.78 33.6 64.11C33.1 64.44 32.79 64.84 32.66 65.32C32.59 65.58 32.57 65.83 32.61 66.03Z" fill="white"/>
<path d="M48.86 69.8L47.21 75.79H44.73L48.64 61.58H51.12L49.49 67.49H56.31L57.94 61.58H60.42L56.51 75.79H54.03L55.68 69.8H48.86Z" fill="white"/>
<path d="M70.75 61.58L66.84 75.79H64.36L68.27 61.58H70.75Z" fill="white"/>
<path d="M87.28 68.46C86.81 69.07 86.27 69.58 85.64 69.98C85.01 70.38 84.32 70.69 83.58 70.9C82.83 71.11 82.06 71.21 81.28 71.21H78.45L77.19 75.78H74.71L78.62 61.57H84.22C85.05 61.57 85.76 61.68 86.37 61.91C86.98 62.13 87.46 62.46 87.81 62.87C88.16 63.29 88.38 63.79 88.47 64.37C88.56 64.95 88.5 65.61 88.3 66.34C88.09 67.15 87.75 67.85 87.28 68.46ZM85.45 64.48C85.01 64.05 84.32 63.84 83.39 63.84H80.48L79.07 68.98H81.98C82.93 68.98 83.74 68.75 84.42 68.28C85.1 67.81 85.55 67.19 85.76 66.42C85.99 65.55 85.89 64.91 85.45 64.48Z" fill="white"/>
<path d="M104.9 68.46C104.43 69.07 103.89 69.58 103.26 69.98C102.63 70.38 101.94 70.69 101.2 70.9C100.45 71.11 99.68 71.21 98.9 71.21H96.07L94.81 75.78H92.33L96.24 61.57H101.84C102.67 61.57 103.38 61.68 103.99 61.91C104.6 62.13 105.08 62.46 105.43 62.87C105.78 63.29 106 63.79 106.09 64.37C106.18 64.95 106.12 65.61 105.92 66.34C105.71 67.15 105.36 67.85 104.9 68.46ZM103.07 64.48C102.63 64.05 101.94 63.84 101.01 63.84H98.1L96.69 68.98H99.6C100.55 68.98 101.36 68.75 102.04 68.28C102.72 67.81 103.17 67.19 103.38 66.42C103.61 65.55 103.51 64.91 103.07 64.48Z" fill="white"/>
<path d="M116.47 61.58L112.56 75.79H110.08L114 61.58H116.47Z" fill="white"/>
<path d="M134.25 61.58H136.73L132.82 75.79H130.73L125.69 65.68L122.91 75.79H120.43L124.34 61.58H126.65L131.54 71.4L134.25 61.58Z" fill="white"/>
<path d="M152.33 74.67C151.83 74.94 151.3 75.18 150.75 75.38C150.2 75.58 149.63 75.74 149.03 75.86C148.43 75.98 147.82 76.03 147.2 76.03C146.09 76.03 145.13 75.85 144.33 75.47C143.53 75.1 142.89 74.58 142.43 73.93C141.97 73.27 141.68 72.5 141.58 71.61C141.47 70.72 141.56 69.75 141.85 68.71C142.13 67.71 142.57 66.76 143.17 65.87C143.77 64.98 144.49 64.2 145.33 63.53C146.16 62.86 147.08 62.33 148.09 61.94C149.1 61.55 150.14 61.35 151.21 61.35C151.83 61.35 152.39 61.39 152.87 61.48C153.35 61.57 153.79 61.69 154.18 61.85C154.57 62.01 154.92 62.21 155.24 62.45C155.56 62.69 155.86 62.96 156.14 63.27L154.04 65.16C153.83 64.93 153.61 64.72 153.38 64.53C153.15 64.34 152.89 64.18 152.62 64.05C152.34 63.92 152.03 63.82 151.68 63.75C151.33 63.68 150.93 63.64 150.48 63.64C149.83 63.64 149.19 63.77 148.55 64.04C147.92 64.3 147.33 64.67 146.79 65.13C146.25 65.59 145.78 66.13 145.37 66.74C144.97 67.35 144.67 68 144.48 68.69C144.28 69.42 144.21 70.1 144.27 70.72C144.33 71.34 144.51 71.88 144.81 72.34C145.11 72.79 145.52 73.15 146.04 73.41C146.56 73.67 147.18 73.79 147.91 73.79C148.59 73.79 149.25 73.69 149.89 73.49C150.53 73.29 151.12 73.03 151.64 72.71L152.38 70.04H148.75L149.35 67.87H155.4L153.76 73.84C153.3 74.12 152.84 74.4 152.33 74.67Z" fill="white"/>
<path d="M46.01 38.99L44.67 44.28C44.09 46.58 42.01 48.57 39.44 49.59C39.25 49.66 39.16 49.84 39.24 49.96L42.55 55.16C42.96 55.8 42.39 56.57 41.51 56.57H33.37L26.31 44.51H34.75C35.52 44.51 36.28 44 36.45 43.36L37.33 39.88C37.49 39.24 36.99 38.73 36.22 38.73H19.2C18.39 38.73 17.62 38.08 17.47 37.28L16.69 32.9H40.13C44.22 32.92 46.85 35.63 46.01 38.99Z" fill="#ED1C24"/>
<path d="M107.99 37.54C107.81 38.26 106.96 38.85 106.09 38.85H87.33L90.12 40.23L87.81 49.46C87.7 49.89 88.04 50.25 88.56 50.25H95.54L94.32 55.12C94.14 55.84 93.29 56.43 92.42 56.43C90.89 56.43 86.89 56.43 84.99 56.43C80.89 56.43 78.27 53.67 79.12 50.27L81.99 38.9C82.85 35.51 86.84 32.77 90.92 32.77H109.18L107.99 37.54Z" fill="#ED1C24"/>
<path d="M114.02 44.76L122.91 56.4H113.34C112.88 56.4 112.48 56.23 112.25 55.93C111.96 55.55 104.05 45.01 103.71 44.56L117.98 33.21C118.35 32.91 118.84 32.74 119.3 32.74H128.87L114.11 44.43C113.98 44.52 113.95 44.67 114.02 44.76Z" fill="#ED1C24"/>
<path d="M152.08 55.59C151.97 56.02 151.46 56.38 150.94 56.38C149.68 56.38 126.25 56.38 124.99 56.38L126.2 51.55C126.41 50.72 127.12 50.19 128.02 50.19H153.44L152.08 55.59ZM151.49 41.71L150.27 46.59C150.16 47.03 149.65 47.38 149.13 47.38C148.53 47.38 128.42 47.38 127.94 47.38L129.01 43.07C129.22 42.24 129.93 41.71 130.83 41.71H151.49ZM155.62 37.97C155.51 38.41 155 38.76 154.48 38.76H132.12C130.89 38.76 129.71 37.76 129.5 36.52L128.84 32.72H156.94L155.62 37.97Z" fill="#ED1C24"/>
<path d="M187.65 32.71L186.48 37.42C186.3 38.15 185.45 38.73 184.58 38.73H172.89L176.18 40.26L172.5 55.05C172.32 55.78 171.47 56.36 170.6 56.36H163.75L168.07 39C168.11 38.85 167.99 38.74 167.82 38.74H160.44V38.73H160.41C159.72 38.73 159.25 38.47 159.04 37.91C158.98 37.76 158.17 32.71 158.17 32.71H187.65Z" fill="#ED1C24"/>
<path d="M162.43 69.56H174.26V70.33C174.26 71.47 173.33 72.4 172.19 72.4H160.36V71.63C160.36 70.49 161.29 69.56 162.43 69.56Z" fill="#00A651"/>
<path d="M164.03 64.97H180.64V65.74C180.64 66.88 179.71 67.81 178.57 67.81H161.96V67.04C161.96 65.9 162.88 64.97 164.03 64.97Z" fill="#00A651"/>
<path d="M57.27 32.76C53.28 32.89 49.45 35.59 48.63 38.9L46.44 47.66L60.38 40.67L57.27 32.76ZM61.36 43.15L45.66 51.03C45.35 54.07 47.88 56.41 51.67 56.41H66.57L61.36 43.15ZM67.42 50.38L69.7 56.2C73.06 55.53 76.01 53.12 76.73 50.26L78.02 45.06L67.42 50.38ZM75.71 33C74.2 35.25 72.12 37.63 70.28 39.58C69.71 40.18 68.95 40.53 68.19 40.53C67.43 40.53 66.77 40.18 66.37 39.59C65.05 37.57 63.61 35.08 62.77 32.75H60.49L66.44 47.9L78.87 41.66L79.56 38.9C80.26 36.11 78.6 33.75 75.71 33Z" fill="#00A651"/>
<path d="M69.25 38.65C71.26 36.52 75.88 31.37 76.3 28.48C76.81 24.97 74.37 22.12 70.86 22.12C67.35 22.12 64.09 24.97 63.58 28.48C63.16 31.37 66.29 36.53 67.68 38.65C68.01 39.15 68.77 39.15 69.25 38.65ZM70.37 25.53C72 25.53 73.12 26.85 72.89 28.47C72.66 30.09 71.14 31.41 69.52 31.41C67.89 31.41 66.77 30.09 67 28.47C67.23 26.85 68.74 25.53 70.37 25.53Z" fill="#ED1C24"/>
</svg>
